<svg width="24" height="22" viewBox="0 0 24 22" fill="none" xmlns="http://www.w3.org/2000/svg">
<path d="M16.792 2.904C18.1065 2.97667 19.3389 3.5659 20.2208 4.5433C21.1027 5.5207 21.5625 6.80704 21.5 8.122C21.5 11.194 18.848 13.081 16.303 15.344C13.791 17.587 12.438 18.813 12 19.096C11.523 18.787 9.85704 17.273 7.69704 15.344C5.14104 13.072 2.50004 11.167 2.50004 8.122C2.43761 6.80704 2.89743 5.5207 3.7793 4.5433C4.66117 3.5659 5.89361 2.97667 7.20804 2.904C7.93619 2.88193 8.6576 3.04918 9.30176 3.3894C9.94591 3.72962 10.4908 4.23116 10.883 4.845C11.723 6.02 11.863 6.608 12.003 6.608C12.143 6.608 12.281 6.02 13.113 4.842C13.5031 4.22532 14.0482 3.72179 14.6937 3.38171C15.3393 3.04163 16.0629 2.87691 16.792 2.904ZM16.792 0.904C15.884 0.874927 14.981 1.05108 14.1505 1.41935C13.3199 1.78762 12.5832 2.33851 11.995 3.031C11.4074 2.34053 10.6722 1.79091 9.84359 1.42275C9.01502 1.0546 8.11433 0.877313 7.20804 0.904C5.36291 0.976152 3.62142 1.77598 2.36438 3.12859C1.10734 4.48121 0.437038 6.27654 0.500043 8.122C0.500043 11.732 3.05004 13.949 5.51504 16.092C5.79804 16.338 6.08404 16.586 6.36804 16.839L7.39504 17.757C8.51508 18.8228 9.68931 19.8301 10.913 20.775C11.2368 20.9846 11.6143 21.0962 12 21.0962C12.3858 21.0962 12.7633 20.9846 13.087 20.775C14.3497 19.8013 15.5601 18.7615 16.713 17.66L17.635 16.836C17.928 16.576 18.225 16.317 18.52 16.062C20.854 14.037 23.5 11.742 23.5 8.122C23.563 6.27654 22.8927 4.48121 21.6357 3.12859C20.3787 1.77598 18.6372 0.976152 16.792 0.904Z" fill="black"/>
</svg>
